<svg width="60" height="60" viewBox="0 0 60 60" fill="none" xmlns="http://www.w3.org/2000/svg">
<path d="M40.8415 29.2713C40.8825 26.1547 42.5555 23.2764 45.2749 21.6447C43.5524 19.2415 40.7681 17.7731 37.7653 17.6815C34.6054 17.3582 31.5428 19.5264 29.933 19.5264C28.2925 19.5264 25.8137 17.7131 23.1438 17.7665C19.6323 17.8781 16.4365 19.7798 14.7277 22.7781C11.0898 28.9279 13.8024 37.9678 17.2884 42.9393C19.0331 45.3743 21.0697 48.0926 23.7379 47.9976C26.3481 47.8926 27.3228 46.3726 30.4725 46.3726C33.5931 46.3726 34.5081 47.9976 37.2293 47.9359C40.0289 47.8909 41.7941 45.491 43.4773 43.0327C44.7303 41.2977 45.6949 39.3811 46.3333 37.3528C43.0079 35.9795 40.8449 32.7979 40.8415 29.2713Z" fill="black"/>
<path d="M35.7014 14.4115C37.2275 12.6216 37.9804 10.3216 37.7977 8C35.4658 8.24 33.3097 9.32831 31.763 11.0483C30.2352 12.7466 29.4601 14.9665 29.6104 17.2232C31.9747 17.2465 34.2196 16.2098 35.7014 14.4115Z" fill="black"/>
</svg>
