<svg width="60" height="60" viewBox="0 0 60 60" fill="none" xmlns="http://www.w3.org/2000/svg">
<path fill-rule="evenodd" clip-rule="evenodd" d="M29.5056 10C18.1814 10 9 19.1797 9 30.5056C9 39.5657 14.8749 47.2519 23.0224 49.9637C24.0477 50.1534 24.4236 49.5194 24.4236 48.9777C24.4236 48.489 24.4048 46.8742 24.3963 45.1603C18.6923 46.4009 17.4876 42.7406 17.4876 42.7406C16.5546 40.3705 15.2115 39.74 15.2115 39.74C13.3506 38.4669 15.3516 38.4943 15.3516 38.4943C17.4107 38.6395 18.4941 40.608 18.4941 40.608C20.3225 43.742 23.2907 42.8363 24.4612 42.3117C24.6458 40.9857 25.1772 40.0817 25.7633 39.5691C21.2094 39.0513 16.4213 37.293 16.4213 29.4359C16.4213 27.1974 17.2227 25.3672 18.5351 23.9319C18.3215 23.4141 17.6192 21.3293 18.7333 18.5047C18.7333 18.5047 20.4558 17.9545 24.3741 20.6065C26.0094 20.152 27.7626 19.9247 29.5056 19.9162C31.2486 19.9247 33.0035 20.152 34.6423 20.6065C38.5554 17.9528 40.2762 18.5047 40.2762 18.5047C41.392 21.3293 40.6897 23.4141 40.4778 23.9319C41.7919 25.3672 42.5882 27.1974 42.5882 29.4359C42.5882 37.3118 37.7916 39.0462 33.2257 39.5537C33.9604 40.1894 34.6166 41.4385 34.6166 43.3507C34.6166 46.095 34.5927 48.3028 34.5927 48.9777C34.5927 49.5228 34.9618 50.1636 36.0008 49.962C44.1449 47.2467 50.0129 39.564 50.0129 30.5073C50.0112 19.1814 40.8298 10 29.5056 10Z" fill="black"/>
<path d="M16.7665 39.4426C16.7221 39.5452 16.5614 39.5759 16.4145 39.5059C16.2658 39.4392 16.1821 39.2991 16.2299 39.1983C16.2744 39.094 16.435 39.065 16.5837 39.135C16.7323 39.2 16.8178 39.3401 16.7665 39.4426Z" fill="black"/>
<path d="M17.597 40.3688C17.4996 40.4594 17.3082 40.4166 17.1783 40.2748C17.0433 40.1313 17.0194 39.9399 17.1185 39.8493C17.2193 39.7588 17.4039 39.8015 17.5389 39.945C17.6739 40.0869 17.6995 40.2765 17.597 40.3688Z" fill="black"/>
<path d="M18.4052 41.5496C18.2788 41.6367 18.0737 41.5547 17.9473 41.3736C17.8208 41.1907 17.8208 40.972 17.9507 40.8849C18.0772 40.7977 18.2805 40.8763 18.4087 41.0574C18.5334 41.242 18.5334 41.4607 18.4052 41.5496Z" fill="black"/>
<path d="M19.5125 42.6911C19.3998 42.8158 19.1605 42.7816 18.9862 42.6125C18.8068 42.4467 18.7572 42.2126 18.87 42.0879C18.9845 41.9631 19.2255 41.999 19.4015 42.1665C19.5792 42.3322 19.6322 42.568 19.5125 42.6911Z" fill="black"/>
<path d="M21.0419 43.3524C20.9924 43.513 20.7617 43.5865 20.5293 43.5181C20.2969 43.4481 20.1448 43.2601 20.1927 43.0978C20.2405 42.9354 20.4729 42.8602 20.707 42.9337C20.9377 43.0021 21.0898 43.19 21.0419 43.3524Z" fill="black"/>
<path d="M22.72 43.4754C22.7251 43.6446 22.5286 43.7847 22.2842 43.7881C22.0399 43.7932 21.8399 43.6565 21.8382 43.4908C21.8382 43.3199 22.0313 43.1815 22.2757 43.1764C22.52 43.1712 22.72 43.3079 22.72 43.4754Z" fill="black"/>
<path d="M24.2818 43.2105C24.3109 43.3746 24.1417 43.5455 23.899 43.5899C23.6615 43.6343 23.4411 43.5318 23.4103 43.3677C23.3813 43.1986 23.5539 43.0294 23.7914 42.985C24.0323 42.9423 24.2511 43.0414 24.2818 43.2105Z" fill="black"/>
</svg>
