<svg width="60" height="60" viewBox="0 0 60 60" fill="none" xmlns="http://www.w3.org/2000/svg">
<path d="M31.1923 33.775V28.31H49.5231C49.7023 29.2617 49.7952 30.3883 49.7952 31.6083C49.7952 35.7083 48.6803 40.7783 45.0835 44.39C41.5862 48.0483 37.1184 50 31.1989 50C20.226 50 11 41.0217 11 30C11 18.9783 20.226 10 31.1989 10C37.2694 10 41.5928 12.3933 44.8413 15.5117L41.0022 19.3667C38.6729 17.1717 35.5158 15.465 31.1923 15.465C23.1807 15.465 16.9145 21.9517 16.9145 30C16.9145 38.0483 23.1807 44.535 31.1923 44.535C36.3884 44.535 39.3482 42.4383 41.2444 40.5333C42.7824 38.9883 43.7944 36.7817 44.1926 33.7683L31.1923 33.775Z" fill="black"/>
</svg>
