<svg width="400" height="240" viewBox="0 0 400 240" fill="none" xmlns="http://www.w3.org/2000/svg">
<path d="M0 36C0 16.1177 15.9188 0 35.5556 0H364.444C384.081 0 400 16.1178 400 36V204C400 223.882 384.081 240 364.444 240H35.5556C15.9188 240 0 223.882 0 204V36Z" fill="url(#paint0_linear_25_82)"/>
<path d="M45.8465 172.606C43.1043 172.606 40.9906 171.891 39.5053 170.46C38.02 168.919 37.2773 166.828 37.2773 164.186V98.1443C37.2773 95.3926 38.02 93.3013 39.5053 91.8704C40.9906 90.4395 43.0472 89.724 45.6751 89.724C48.4172 89.724 50.4738 90.4395 51.8449 91.8704C53.3302 93.3013 54.0729 95.3926 54.0729 98.1443V111.022L52.1877 108.051C54.7013 101.887 58.6431 97.2638 64.0131 94.1818C69.3831 90.9898 75.5529 89.3938 82.5225 89.3938C89.1494 89.3938 94.6336 90.6046 98.9754 93.0261C103.431 95.3376 106.745 98.9148 108.916 103.758C111.086 108.491 112.172 114.49 112.172 121.754V164.186C112.172 166.828 111.429 168.919 109.944 170.46C108.459 171.891 106.345 172.606 103.603 172.606C100.746 172.606 98.5755 171.891 97.0901 170.46C95.6048 168.919 94.8622 166.828 94.8622 164.186V122.745C94.8622 115.81 93.434 110.747 90.5776 107.555C87.8354 104.363 83.4937 102.767 77.5524 102.767C70.5828 102.767 64.9843 104.859 60.7568 109.041C56.6436 113.224 54.587 118.837 54.587 125.882V164.186C54.587 169.799 51.6735 172.606 45.8465 172.606Z" fill="white"/>
<path d="M172.357 172.936C163.902 172.936 156.59 171.23 150.42 167.818C144.364 164.406 139.623 159.563 136.195 153.289C132.767 147.015 131.054 139.64 131.054 131.165C131.054 124.671 132.025 118.892 133.967 113.829C135.909 108.766 138.652 104.418 142.193 100.786C145.85 97.0436 150.191 94.2369 155.219 92.3657C160.36 90.3844 166.073 89.3938 172.357 89.3938C180.698 89.3938 187.896 91.0999 193.951 94.5121C200.121 97.9242 204.92 102.767 208.348 109.041C211.775 115.205 213.489 122.58 213.489 131.165C213.489 137.549 212.518 143.328 210.576 148.501C208.633 153.674 205.834 158.077 202.178 161.709C198.636 165.342 194.294 168.148 189.153 170.13C184.125 172.001 178.527 172.936 172.357 172.936ZM172.357 160.058C177.041 160.058 181.155 158.958 184.697 156.756C188.239 154.555 190.981 151.308 192.923 147.015C194.98 142.722 196.008 137.439 196.008 131.165C196.008 121.699 193.837 114.545 189.495 109.702C185.154 104.859 179.441 102.437 172.357 102.437C167.558 102.437 163.388 103.538 159.846 105.739C156.304 107.83 153.505 111.022 151.448 115.315C149.506 119.608 148.535 124.891 148.535 131.165C148.535 140.521 150.706 147.676 155.047 152.629C159.389 157.582 165.159 160.058 172.357 160.058Z" fill="white"/>
<path d="M267.74 172.936C260.885 172.936 255.115 171.781 250.43 169.469C245.746 167.158 242.261 163.746 239.976 159.233C237.691 154.72 236.548 149.216 236.548 142.722V76.2405H44.1701C41.885 76.2405 40.1141 75.6902 38.8572 74.5895C37.6004 73.3787 36.972 71.7827 36.972 69.8015C36.972 67.7102 37.6004 66.1142 38.8572 65.0135C40.1141 63.9128 41.885 63.3624 44.1701 63.3624H236.548V46.3567C236.548 43.605 237.291 41.5137 238.776 40.0828C240.376 38.6519 242.547 37.9364 245.289 37.9364C248.031 37.9364 250.145 38.6519 251.63 40.0828C253.115 41.5137 253.858 43.605 253.858 46.3567V63.3624H273.91C276.195 63.3624 277.966 63.9128 279.223 65.0135C280.479 66.1142 281.108 67.7102 281.108 69.8015C281.108 71.7827 280.479 73.3787 279.223 74.5895C277.966 75.6902 276.195 76.2405 273.91 76.2405H253.858V141.402C253.858 147.235 255.115 151.638 257.628 154.61C260.256 157.582 264.484 159.068 270.311 159.068C272.367 159.068 274.138 158.903 275.624 158.572C277.223 158.132 278.537 157.857 279.565 157.747C280.822 157.747 281.851 158.187 282.65 159.068C283.45 159.838 283.85 161.379 283.85 163.691C283.85 165.342 283.507 166.883 282.822 168.314C282.25 169.744 281.165 170.68 279.565 171.12C278.194 171.561 276.309 171.946 273.91 172.276C271.625 172.716 269.568 172.936 267.74 172.936Z" fill="white"/>
<path d="M321.423 172.936C315.596 172.936 310.34 171.836 305.656 169.634C301.086 167.433 297.487 164.461 294.859 160.719C292.231 156.976 290.917 152.739 290.917 148.006C290.917 142.062 292.459 137.384 295.544 133.972C298.743 130.45 303.942 127.973 311.14 126.542C318.453 125.001 328.278 124.231 340.618 124.231H348.673V134.467H340.789C332.563 134.467 326.05 134.852 321.252 135.623C316.453 136.393 313.025 137.714 310.969 139.585C309.026 141.347 308.055 143.823 308.055 147.015C308.055 151.198 309.541 154.61 312.511 157.252C315.482 159.783 319.595 161.049 324.851 161.049C329.078 161.049 332.792 160.113 335.991 158.242C339.19 156.261 341.704 153.619 343.532 150.317C345.474 147.015 346.445 143.218 346.445 138.925V119.938C346.445 113.664 345.074 109.151 342.332 106.4C339.59 103.648 335.077 102.272 328.793 102.272C325.136 102.272 321.309 102.712 317.31 103.593C313.425 104.473 309.369 105.959 305.142 108.051C303.199 108.931 301.543 109.206 300.172 108.876C298.801 108.546 297.715 107.83 296.915 106.73C296.116 105.519 295.658 104.253 295.544 102.932C295.544 101.501 295.887 100.126 296.573 98.8047C297.372 97.4839 298.686 96.4933 300.514 95.8329C305.542 93.5214 310.512 91.8704 315.425 90.8798C320.338 89.8891 324.965 89.3938 329.307 89.3938C336.962 89.3938 343.246 90.5496 348.159 92.861C353.186 95.1725 356.9 98.6947 359.299 103.428C361.698 108.161 362.898 114.269 362.898 121.754V164.186C362.898 166.828 362.212 168.919 360.841 170.46C359.47 171.891 357.471 172.606 354.843 172.606C352.329 172.606 350.33 171.891 348.845 170.46C347.359 168.919 346.617 166.828 346.617 164.186V153.454H348.159C347.245 157.527 345.531 161.049 343.017 164.021C340.618 166.883 337.59 169.084 333.934 170.625C330.278 172.166 326.108 172.936 321.423 172.936Z" fill="white"/>
<defs>
<linearGradient id="paint0_linear_25_82" x1="389.121" y1="4.9587" x2="-11.7704" y2="183.511" gradientUnits="userSpaceOnUse">
<stop stop-color="#00AAFF"/>
<stop offset="1" stop-color="#00CC88"/>
</linearGradient>
</defs>
</svg>
