<svg width="22" height="22" viewBox="0 0 22 22" fill="none" xmlns="http://www.w3.org/2000/svg">
<path fill-rule="evenodd" clip-rule="evenodd" d="M5 3C4.44772 3 4 3.44772 4 4V18C4 18.5523 4.44772 19 5 19H17C17.5523 19 18 18.5523 18 18V4C18 3.44772 17.5523 3 17 3H5ZM6 4C5.44772 4 5 4.44772 5 5V17C5 17.5523 5.44772 18 6 18H16C16.5523 18 17 17.5523 17 17V5C17 4.44772 16.5523 4 16 4H6Z" fill="#CCCCCC"/>
<path d="M12 4H15V9L13.5 8L12 9V4Z" fill="#CCCCCC"/>
<line x1="7.5" y1="4" x2="7.5" y2="18" stroke="#CCCCCC"/>
</svg>
