<svg width="10" height="10" viewBox="0 0 10 10" fill="none" xmlns="http://www.w3.org/2000/svg">
<path d="M9 6C8.44772 6 8 5.55228 8 5C8 4.44772 8.44772 4 9 4C9.55228 4 10 4.44772 10 5C10 5.55228 9.55228 6 9 6Z" fill="#CCCCCC"/>
<path d="M5 6C4.44772 6 4 5.55228 4 5C4 4.44772 4.44772 4 5 4C5.55228 4 6 4.44772 6 5C6 5.55228 5.55228 6 5 6Z" fill="#CCCCCC"/>
<path d="M1 6C0.447715 6 -2.41411e-08 5.55228 0 5C2.41411e-08 4.44772 0.447715 4 1 4C1.55228 4 2 4.44772 2 5C2 5.55228 1.55228 6 1 6Z" fill="#CCCCCC"/>
</svg>
